<?xml version="1.0" encoding="UTF-8" standalone="no"?>
<!-- Created with Inkscape (http://www.inkscape.org/) -->

<svg
   xmlns:dc="http://purl.org/dc/elements/1.1/"
   xmlns:cc="http://creativecommons.org/ns#"
   xmlns:rdf="http://www.w3.org/1999/02/22-rdf-syntax-ns#"
   xmlns:svg="http://www.w3.org/2000/svg"
   xmlns="http://www.w3.org/2000/svg"
   version="1.1"
   width="198.40146"
   height="131.44044"
   id="svg4110">
  <defs
     id="defs4112" />
  <metadata
     id="metadata4116">
    <rdf:RDF>
      <cc:Work
         rdf:about="">
        <dc:format>image/svg+xml</dc:format>
        <dc:type
           rdf:resource="http://purl.org/dc/dcmitype/StillImage" />
        <dc:title></dc:title>
      </cc:Work>
    </rdf:RDF>
  </metadata>
  <g
     transform="translate(-451.28965,-293.72199)"
     id="layer1">
    <path
       d="m 520.60102,423.77689 c -1.77372,-0.42142 -4.34539,-1.50036 -5.71482,-2.39764 -1.47484,-0.96635 -4.5556,-1.63142 -7.55716,-1.63142 -6.01493,0 -10.77758,-2.24896 -12.00307,-4.50799 -3.20572,-1.91993 -4.92207,-3.72539 -3.98723,-7.67627 0.0165,-4.28636 4.64089,-18.77556 6.72875,-21.08262 1.2384,-1.36842 1.33806,-2.05355 0.43071,-2.9609 -0.90735,-0.90735 -2.16297,-0.24204 -5.42637,2.87527 -9.06349,8.65775 -21.26482,15.51855 -25.02931,14.07398 -0.78769,-0.30227 -1.7152,-1.82575 -2.06113,-3.38552 -0.34593,-1.55977 -2.65991,-5.05776 -5.14219,-7.77329 -3.87301,-4.23696 -4.51323,-5.54204 -4.51323,-9.20023 0,-3.82492 0.45981,-4.64725 4.47544,-8.0039 2.46149,-2.05755 4.3051,-3.91134 4.0969,-4.11953 -0.20819,-0.20819 -2.13785,0.51901 -4.28814,1.616 -2.15028,1.097 -4.40304,1.68957 -5.00614,1.31684 -0.60309,-0.37273 -1.86326,-2.59395 -2.80038,-4.93604 -2.0546,-5.13495 -1.16381,-6.72132 4.30795,-7.67182 6.02313,-1.04629 6.43364,-0.93974 11.05531,-2.85724 4.84717,-2.01108 4.34665,-9.70675 3.70326,-9.70675 -1.25725,-1.92629 0.40486,-0.002 -6.96637,-16.06729 0.86358,-2.26976 -3.10013,-6.93779 5.66456,-8.56664 l 3.44432,-8.25942 c 2.2876,-5.48561 18.69852,3.89051 19.09409,3.88703 15.28353,8.59107 5.60838,16.96076 15.01035,14.0341 0.40247,-1.04882 -10.83979,-22.33333 -6.79873,-27.19444 4.43357,-8.22823 13.4279,2.65026 15.25758,-1.10052 15.90858,-18.22947 22.19421,-2.61073 25.16682,11.59373 -0.14965,12.9457 -1.51576,13.87351 0.14528,16.40858 2.93132,4.47375 10.28306,4.89331 9.65205,0.55084 -0.53503,-3.6819 1.73344,-7.29678 6.46005,-10.29431 5.52184,-3.50184 8.83384,-3.73721 14.08366,-1.00085 17.29351,3.38746 7.67106,1.11085 17.70319,4.95693 10.50675,6.57233 1.58254,0.91962 10.28542,7.20331 6.53429,4.70646 4.97042,6.41206 7.34637,13.37276 2.89478,8.23619 4.58735,11.23466 7.10106,12.57997 3.42315,1.83201 17.30076,0.36778 24.59131,-2.59463 7.9161,-3.2166 10.46371,-3.28239 10.03434,-0.25915 -0.2824,1.9884 -1.07529,2.32591 -6.81955,2.90287 -8.90552,0.89448 -17.06965,2.71627 -19.66624,4.38844 -2.19279,1.41213 -6.33376,10.88966 -6.33376,14.4962 -0.42843,3.36408 -3.36631,10.58207 -6.75,10.95566 -0.6875,0.004 -1.25,0.47201 -1.25,1.04056 0,1.14489 -4.95776,4.47546 -6.79369,5.37641 -0.97866,2.03179 -4.13466,2.48253 -5.83599,3.2085 -2.94542,1.23067 -4.17526,1.29059 -6.5237,0.31784 -1.59171,-0.65931 -3.30736,-1.92723 -3.81256,-2.81761 -0.82302,-1.45051 -1.07724,-1.41088 -2.4445,0.38114 -1.14967,1.50682 -1.53757,1.63012 -1.57307,0.5 -0.0417,-1.32753 -0.15555,-1.32849 -0.99016,-0.008 -0.75105,1.18796 -1.19583,1.23886 -2.18469,0.25 -2.64136,-2.64173 -7.39314,-1.36441 -15.84164,4.258 -10.08005,6.70819 -12.22758,6.8891 -18.09641,1.52446 -3.81811,-3.49009 -4.3525,-4.49749 -4.37639,-8.25001 -0.015,-2.35095 0.34062,-5.28696 0.79019,-6.52446 0.45436,-1.2507 0.42558,-2.25 -0.0648,-2.25 -1.38838,0 -4.2526,6.75807 -4.2526,10.03394 -1.43238,5.38394 -1.37896,11.5599 -3.12843,18.32316 0.89903,4.8458 -7.72821,11.95039 -9.04315,11.54055 -0.18063,-0.0563 -1.77965,-0.44716 -3.55337,-0.86858 z"
       id="path3323"
       style="fill:none;stroke:#000000;stroke-opacity:1" />
  </g>
</svg>
